<?xml version="1.0" encoding="UTF-8" standalone="no"?>
<!-- Created with Inkscape (http://www.inkscape.org/) -->

<svg
   width="210mm"
   height="297mm"
   viewBox="0 0 210 297"
   version="1.1"
   id="svg1"
   xml:space="preserve"
   inkscape:version="1.4.3 (0d15f75, 2025-12-25)"
   sodipodi:docname="joad-core.svg"
   inkscape:export-filename="joad-core.png"
   inkscape:export-xdpi="96"
   inkscape:export-ydpi="96"
   xmlns:inkscape="http://www.inkscape.org/namespaces/inkscape"
   xmlns:sodipodi="http://sodipodi.sourceforge.net/DTD/sodipodi-0.dtd"
   xmlns="http://www.w3.org/2000/svg"
   xmlns:svg="http://www.w3.org/2000/svg"><sodipodi:namedview
     id="namedview1"
     pagecolor="#505050"
     bordercolor="#eeeeee"
     borderopacity="1"
     inkscape:showpageshadow="0"
     inkscape:pageopacity="0"
     inkscape:pagecheckerboard="0"
     inkscape:deskcolor="#505050"
     inkscape:document-units="mm"
     inkscape:zoom="1.1447461"
     inkscape:cx="334.13524"
     inkscape:cy="714.13217"
     inkscape:window-width="2560"
     inkscape:window-height="1566"
     inkscape:window-x="-11"
     inkscape:window-y="-11"
     inkscape:window-maximized="1"
     inkscape:current-layer="g1" /><defs
     id="defs1" /><g
     inkscape:label="Capa 1"
     inkscape:groupmode="layer"
     id="layer1"><g
       id="g1"
       transform="matrix(0.26458333,0,0,0.26458333,-30.687703,12.85311)"><path
         fill="#000000"
         opacity="1"
         stroke="none"
         d="m 600.36499,229.57294 c 62.97589,37.03778 126.10437,73.10122 187.86157,110.57324 0.008,2.37585 -1.16986,2.8067 -2.14996,3.39273 -40.03034,23.93448 -80.06049,47.86941 -120.09479,71.79742 -46.74982,27.94178 -93.69446,55.56598 -140.10266,84.06391 -9.90332,6.08139 -16.77786,5.75 -26.57699,-0.31931 -40.92295,-25.34659 -82.32731,-49.93045 -123.85764,-74.27801 -45.12418,-26.45456 -89.73489,-53.76056 -134.72405,-80.43613 -4.19499,-2.4873 -4.29934,-3.65521 -0.17199,-6.10419 26.35804,-15.63977 52.73716,-31.24411 79.13163,-46.82235 25.67749,-15.155 51.37821,-30.27069 77.07502,-45.39296 28.56439,-16.80985 57.14871,-33.58585 85.69552,-50.42539 7.45987,-4.40053 15.10208,-8.57812 22.12613,-13.60481 5.95069,-4.2585 10.60199,-3.56879 16.6142,0.12122 26.11523,16.0283 52.53766,31.556 79.17401,47.43463 z"
         id="path1"
         style="fill:#a78bfa;fill-opacity:1" /><path
         fill="#000000"
         opacity="1"
         stroke="none"
         d="m 772.58783,370.59241 c 6.73022,-4.05869 13.11847,-7.97754 19.55591,-11.81369 4.89886,-2.91931 5.92187,-2.35346 5.93304,3.51953 0.0504,26.49567 0.0245,52.99145 0.0331,79.48721 0.004,12.66464 -0.0331,25.32981 0.0764,37.99362 0.0269,3.11484 -0.82459,5.31678 -3.65778,7.00849 -17.87414,10.67273 -35.66748,21.48062 -53.49762,32.22708 -1.40289,0.84552 -2.73022,1.96289 -4.68176,1.75622 -2.2113,-1.92572 -1.45856,-4.60662 -1.29681,-6.94354 0.97973,-14.1506 0.47454,-28.31454 0.56262,-42.47192 0.0151,-2.42404 0.39154,-4.99915 -1.36975,-7.05676 -1.79755,-0.30836 -2.94397,0.80673 -4.19599,1.55795 -39.70367,23.8241 -79.39276,47.67257 -119.10046,71.49002 -8.13898,4.8819 -16.29205,9.74524 -24.54401,14.43158 -2.98626,1.69592 -4.12085,3.91199 -4.08825,7.28357 0.37695,38.98669 -0.32849,77.9751 0.4281,116.96533 0.35864,18.48059 -0.31147,36.98059 -0.45679,55.47229 -0.0165,2.09711 -0.57337,4.3222 0.92554,6.54132 4.09344,-0.4779 7.07794,-3.3432 10.39611,-5.30151 32.98859,-19.46912 65.90851,-39.05457 98.83063,-58.63611 13.16937,-7.83295 26.25867,-15.80145 39.47241,-23.55841 2.80372,-1.646 3.9126,-3.64093 3.81946,-6.85669 -0.39062,-13.48548 0.44293,-26.99262 -0.62536,-40.4668 -0.2677,-3.37561 0.94354,-5.62683 3.9035,-7.37713 17.9184,-10.59534 35.7655,-21.3111 53.64288,-31.97577 4.04053,-2.4104 5.448,-1.76355 5.45691,2.89361 0.071,36.99396 0.0408,73.98804 0.10199,110.98206 0.005,2.90814 -1.40283,4.48657 -3.75195,5.89221 -32.58746,19.4989 -65.1037,39.1167 -97.70233,58.59668 -40.74854,24.35016 -81.57483,48.56994 -122.33045,72.90814 -15.86944,9.47687 -31.62909,19.13721 -47.46624,28.66834 -1.49207,0.89788 -2.9892,2.68615 -4.91358,1.60937 -1.93432,-1.0824 -1.19012,-3.28644 -1.19037,-5.03961 -0.0159,-103.98346 0.0371,-207.96704 -0.11621,-311.95026 -0.008,-5.53711 1.70453,-8.65112 6.49738,-11.49701 51.8443,-30.78335 103.5299,-61.83392 155.29101,-92.75775 29.88239,-17.85275 59.82337,-35.60739 90.05878,-53.58166 z"
         id="path2"
         style="fill:#a78bfa;fill-opacity:1" /><path
         fill="#000000"
         opacity="1"
         stroke="none"
         d="m 366.88306,575 c 0.019,-20.4989 -0.0422,-40.49841 0.12753,-60.49603 0.0322,-3.79282 -1.21133,-6.12073 -4.49829,-8.05512 -16.94165,-9.97003 -33.74021,-20.18316 -50.66623,-30.18023 -2.74341,-1.62034 -4.0763,-3.49509 -4.06589,-6.75303 0.064,-19.99844 -0.0147,-39.99731 -0.036,-59.99606 -0.002,-1.46054 -0.19864,-2.99161 1.26892,-4.5704 4.85584,1.58194 9.17209,4.37539 13.52008,6.97799 28.44217,17.02488 56.82736,34.14505 85.22132,51.2504 5.13543,3.09378 10.10812,6.48016 15.37524,9.3255 3.92535,2.12045 5.07849,5.03275 5.07098,9.33045 -0.10195,58.32986 -0.057,116.65994 -0.0676,174.98996 -0.003,13.98724 0.63608,28.0166 -1.97119,41.8728 -3.80091,20.19983 -12.14069,37.42938 -31.76502,46.86249 -15.39349,7.39941 -31.35791,6.95166 -47.31338,2.33654 -30.76846,-8.89972 -55.39163,-27.30755 -76.22129,-50.98163 -29.44935,-33.47094 -43.29487,-72.85553 -42.99446,-117.33282 0.0462,-6.8324 -0.0623,-13.66577 -0.0304,-20.49835 0.008,-1.78803 -0.44928,-3.68378 0.74842,-5.30792 1.65689,-1.08905 2.87614,0.0832 4.11071,0.81256 17.78273,10.50641 35.51197,21.10431 53.35889,31.50024 3.21396,1.87213 4.19629,4.22669 4.1015,7.73877 -0.43014,15.93634 0.7489,31.67365 7.3472,46.48315 7.79242,17.48963 20.1293,30.43397 38.25006,37.40357 3.28229,1.26251 6.65814,2.04443 10.21607,2.10974 10.48022,0.19226 17.27359,-5.12427 19.70746,-15.43072 1.08242,-4.58381 1.25527,-9.22181 1.25012,-13.89539 -0.0276,-24.99884 -0.0324,-49.99762 -0.0448,-75.49646 z"
         id="path3"
         style="fill:#a78bfa;fill-opacity:1" /><path
         fill="#000000"
         opacity="1"
         stroke="none"
         d="m 505.0668,673 c 0.0224,55.31244 0.0444,110.12488 0.0656,164.93732 5.1e-4,1.33282 0.005,2.66577 -0.0136,3.99835 -0.0493,3.5719 -1.4234,4.5025 -4.65829,2.57117 -14.72757,-8.79285 -29.51508,-17.4853 -44.24994,-26.26599 -25.75009,-15.34485 -51.48315,-30.71827 -77.20056,-46.1178 -1.63028,-0.9762 -3.80316,-1.49439 -4.26209,-4.12909 3.05042,-1.97425 6.68689,-1.37915 9.99384,-2.0235 26.52466,-5.16852 43.30331,-21.28742 52.38403,-46.17944 5.32663,-14.60132 6.71567,-29.77179 6.70316,-45.18793 -0.0495,-60.97669 -0.0162,-121.95337 0.0151,-182.93005 8.8e-4,-1.74619 -0.78559,-3.961 1.19076,-5.01691 1.89581,-1.01285 3.44156,0.66641 4.9549,1.57324 16.5657,9.92642 33.04992,19.99084 49.70166,29.7702 3.90701,2.29462 5.47049,4.92383 5.45526,9.55597 -0.15882,48.31439 -0.0878,96.62952 -0.0799,145.44446 z"
         id="path4"
         style="fill:#a78bfa;fill-opacity:1" /></g></g></svg>
